<svg xmlns="http://www.w3.org/2000/svg" xmlns:xlink="http://www.w3.org/1999/xlink" version="1.1" x="0px" y="0px" viewBox="0 0 96 67.5" style="enable-background:new 0 0 96 54;" xml:space="preserve"><g><path d="M81.7455902,35.9836769l0.3438568-2.4069748l-0.769455-0.9314346v-1.6381931l-0.2610931-1.0071392l0.4502029-0.4877338   l0.5739899-3.566925l-0.9975586-4.6552734h-1.632164l-5.4079361,3.0048637l-0.5654297-0.5174122v-5.3674507H70.840004v3.2946091   l-0.4875259,0.9053917h-0.6724854v0.4799995h-1.6605453l-0.2521591,0.612421   c-0.3096085-0.1584072-0.9998703-0.5274601-1.7260513-1.0212879c-1.0415039-0.7081356-1.7488174-0.3000298-1.8352432-0.2447166   l-1.5611763,0.8976841c-0.1727333,0.0145607-0.8749504,0.0699902-1.206913,0.036768   c-0.2379494-0.0237885-0.4761047-0.1193848-0.4383698-0.6480465c0.0460548-0.644619-0.4818153-1.0923634-0.5043144-1.1111126   L60.445179,21.569994h-3.9651833v1.1200199h1.6352921l-0.0034294,0.1327724l-1.0286713-0.0001755l-0.0023155,0.4697762   c-1.3262405,0.0181046-9.2187881,0.1329479-10.7624092,0.3188953c-1.6358223,0.1971092-9.7447586,3.6864262-10.3818779,3.9614067   c-20.1852818,1.4697666-22.265213,4.1217194-22.3439331,4.2339554l-1.7526569,3.1365242v1.7858505l3.5312119,0.9229088   l0.0641308,0.7695694l-0.9153519,1.3464851h6.0427284c0.4835892,2.4160385,2.6211033,4.242012,5.1772995,4.242012   c2.2751732,0,4.2188377-1.4465027,4.9596939-3.4681358h30.9304428c0.7626915,2.3135033,2.9442368,3.9881554,5.5098648,3.9881554   c2.8346405,0,5.2004929-2.0441589,5.7017593-4.7357101l2.7251892-0.8279152l0.9350128,1.8700523l2.9057236-1.5646019   l-0.4817581-1.1825104l0.0973816-0.5843849L81.7455902,35.9836769z M79.0540237,37.0753784l0.3383713-3.2298164l2.2996674-0.032608   l-0.2776413,1.9433784L79.0540237,37.0753784z M77.3284149,33.3464584   c-0.2986832-0.7914543-0.7796249-1.5507717-1.4294891-2.2568836c-0.7133789-0.7750492-1.7371216-1.2195721-2.8088074-1.2195721   h-8.1527023c-0.9038086,0-1.6782417-0.0714245-2.301796-0.2123127c-0.7489777-0.1691895-1.1178818-0.7001076-1.1961327-1.7214565   c-0.0596352-0.7781239-0.1934357-2.4010258-0.2880554-3.5404911c1.6873589,0.3502083,11.9820213,2.5006428,17.2660179,3.9210281   c0.0573807,0.1466465,0.1863022,0.5164318,0.3119659,1.1549129c0.1502762,0.7635059,0.3255081,2.0737343,0.3214874,4.0186958   l-1.6580963,0.02351L77.3284149,33.3464584z M79.0298538,33.8507004l-0.3227081,3.0804787l-1.1766205-3.0592232   L79.0298538,33.8507004z M81.5222473,33.4553413l-2.1112823,0.0299416c0.0058289-2.874464-0.3662796-4.4218216-0.5703354-5.0533314   c0.4485779,0.1236916,0.8541336,0.2410107,1.2061539,0.3499947l0.0671463,0.0092888   c0.049202,0.0141048,0.3421402,0.1387634,0.5509415,1.104784l-0.0037613,0.0040722l0.2988815,1.1528912v1.7217789   L81.5222473,33.4553413z M81.7169342,25.95471l-0.5460052,3.3930759l-0.2124176,0.230114   c-0.2722015-1.020689-0.6752243-1.142477-0.8327789-1.1483364c-2.1125793-0.6515617-6.0894241-1.5921822-9.8730011-2.4397106   l0.2736206-0.1898594h3.5314713l6.7938385-3.883213L81.7169342,25.95471z M61.4020729,23.7291145   c0.4122963,0.0411034,1.277607-0.0365028,1.3142281-0.0398426l0.0392609-0.0035744l1.6341782-0.9396687l0.0106354-0.0066204   c0.0225601-0.0147667,0.5632629-0.3556652,1.4384155,0.2394428c0.9997559,0.6798344,1.9055023,1.1153316,1.9435577,1.1335545   l0.1716766,0.0820904l0.3065338-0.7444935h1.7794342v-0.4799995h0.5275192l0.6324921-1.1746292v-3.0253696h1.9199982v5.1660061   l0.8736649,0.7994823l5.5530167-3.0854893h1.0462646l-6.6307449,3.7899895h-3.5485306l-0.6386108,0.4431152   c-4.1229782-0.9191151-7.9092636-1.7070408-8.6547279-1.8614864c-0.0114479-0.1375694-0.0218925-0.2629471-0.0311165-0.3735046   C61.1977272,23.6972466,61.3089752,23.719799,61.4020729,23.7291145z M56.8399925,22.3300133v-0.4000187h3.46875   c0.1050301,0.1059666,0.3578339,0.4013081,0.3317299,0.767168c-0.0146942,0.2056847,0.0060043,0.3709641,0.0501137,0.5037441   c0.0240211,0.2867279,0.2970848,3.5511475,0.3899536,4.7628365c0.0898247,1.1721096,0.5725212,1.841074,1.4757423,2.0450974   c0.6495438,0.1467495,1.4506683,0.2211628,2.381134,0.2211628h8.1527023c0.9713135,0,1.8985291,0.4021587,2.5439072,1.1033783   c0.618515,0.6720123,1.0752563,1.3920708,1.3579712,2.1412506l0.0172272,0.0447083l-1.1312256,0.0160255l-0.0495834-0.1289062   c-0.435791-1.1548271-1.1967545-1.6800308-1.7583694-1.9172764c-0.5871964-0.2480564-1.0778961-0.2408199-1.1331177-0.2391796   h-9.4995117c-3.2844734,0-3.7308121-2.0915337-3.7587891-2.2434959c-0.1239243-1.4200191-0.3328438-4.245615-0.2408218-4.8284473   c0.11623-0.7360477-0.6574211-1.1571827-0.9673615-1.294775l0.0142784-0.5532722H56.8399925z M67.1400146,32.9300041   c-1.0498428,0-2.0354233,0.2803841-2.8858185,0.7701836l-6.9617996,0.0987015   c0.5008354-0.6964569,0.8890152-1.3223724,1.1847954-1.8524113c0.5702477-1.0218754,0.8812408-1.821825,1.0427246-2.3174114   c0.1034355,0.2145691,0.2579231,0.4680767,0.4866905,0.7215519c0.5185547,0.5745125,1.534687,1.2593861,3.430809,1.2593861   h9.5025864l0.0074997-0.0001469c0.0178986-0.0007915,1.7986221-0.0517673,2.5444946,1.9247761l0.0023727,0.0061798   l-5.6121979,0.0795708C69.0651855,33.1801682,68.1313019,32.9300041,67.1400146,32.9300041z M61.3431587,38.5472984   l-8.3405991-0.1264153c1.7760506-1.5366669,3.0778923-2.9993286,4.0224724-4.2581825l6.6683197-0.0945435   C62.3123131,35.091877,61.4001999,36.713665,61.3431587,38.5472984z M28.9754257,34.5603752l8.0350647-0.1139069   l1.1228065,3.7490616l-7.1524944-0.1084137C30.8065052,36.6577377,30.0588741,35.4029808,28.9754257,34.5603752z    M38.5108337,38.2012444l-1.1261101-3.7600937l19.1843987-0.2719917c-1.3514557,1.7534752-2.8764801,3.1991005-4.0753784,4.2134018   l0.0262299,0.0310135L38.5108337,38.2012444z M57.2623367,23.650013l0.1767769-0.0023136l0.0023155-0.4650307l0.8127251,0.0001392   c0.1540794,0.0610924,0.9144287,0.3920956,0.8280449,0.9391193c-0.1181908,0.7486458,0.2024651,4.5077629,0.2361336,4.8967381   c-0.0366287,0.1637993-0.2928047,1.2111912-1.1663094,2.7716904c-0.3949928,0.7056427-0.8383713,1.3790627-1.3078117,2.0148926   L37.277359,34.0826607l-1.3946152-4.6566219c0.2133522-0.0848732,0.5903625-0.2621784,1.2962341-0.5965424   c0.8554115-0.4051762,1.9897842-0.9525299,3.1907539-1.5320225c2.453701-1.1839447,5.50737-2.6573734,5.7917557-2.7161999   l0.0212708-0.0058022c0.0166855-0.0056458,0.3660927-0.1318569,0.3543015-0.6250553   C48.5604286,23.7646732,57.172718,23.6511478,57.2623367,23.650013z M35.9930687,27.9295254l0.0303841-0.0022278   l0.0279465-0.0120697c0.0832214-0.0359612,8.0027733-3.453207,10.0763817-3.9048195   c-0.0214043,0.1149902-0.0471077,0.2163734-0.0608063,0.2235794c-0.3765793,0.1025391-2.5727043,1.1561432-5.8536911,2.7392578   c-1.863163,0.899004-3.9526749,1.9072266-4.4718132,2.1211224c-0.0716324-0.1843929-0.170948-0.6142368-0.1394272-1.1359558   l0.000206-0.0000877C35.7319183,27.9486847,35.8618317,27.9390621,35.9930687,27.9295254z M35.2376938,27.9857597   c-0.0575104,0.6969738,0.1036263,1.2206402,0.2613945,1.4141026l1.4040375,4.6881008l-8.4055729,0.1191788l0.0003147,0.0221214   c-0.8031673-0.4939613-1.7477703-0.7792702-2.7578545-0.7792702c-1.034235,0-1.9998016,0.2991524-2.8151913,0.8150978   l-7.3548088,0.0764961v-2.0015945c0-0.4557114,0.0975008-0.8479671,0.2819538-1.1343441   c0.1148729-0.1783886,0.2299843-0.2640533,0.2656593-0.2880039c0.3828735-0.1310291,0.8277988-0.2693405,1.3465767-0.4126606   C20.148983,29.7631874,25.3994522,28.7326412,35.2376938,27.9857597z M13.8895445,32.0114288   c0.0420704-0.0470352,0.3726749-0.3822498,1.5758686-0.8550873c-0.1399841,0.2696781-0.2553997,0.6527195-0.2553997,1.183651   v2.0053444l-2.6391649,0.0274506L13.8895445,32.0114288z M12.1999941,36.4509888v-1.4141312l0.1686144-0.3019333   l2.8498096-0.0296478l0.1563644,2.5755196L12.1999941,36.4509888z M15.2000237,39.4079819l0.6046286-0.8894539   l-0.2254028-3.8170013l6.8373671-0.0711174c-1.192873,0.9688759-1.9566021,2.4466095-1.9566021,4.0995865   c0,0.2296867,0.0148163,0.4559593,0.0434017,0.6779861H15.2000237z M25.7400131,43.6499939   c-2.7128906,0-4.9200001-2.2071075-4.9200001-4.9199982s2.2071095-4.920002,4.9200001-4.920002   s4.9200001,2.2071114,4.9200001,4.920002S28.4529037,43.6499939,25.7400131,43.6499939z M30.8169708,40.1818581   c0.1321545-0.4614525,0.203043-0.9485283,0.203043-1.4518623c0-0.0947342-0.0026379-0.1888504-0.0075874-0.2823792   l30.3305264,0.459713c0.0132408,0.4386749,0.0752068,0.8653107,0.1810532,1.2745285H30.8169708z M67.1400146,44.1700134   c-2.999649,0-5.4400215-2.4403725-5.4400215-5.4400177c0-2.9996223,2.4403725-5.439991,5.4400215-5.439991   c2.9996185,0,5.4399872,2.4403687,5.4399872,5.439991C72.5800018,41.729641,70.1396332,44.1700134,67.1400146,44.1700134z    M75.7530594,38.5336151l-2.8519821,0.8664131c0.0254135-0.2199173,0.0389252-0.4434242,0.0389252-0.6700325   c0-1.9671974-0.9846497-3.7084579-2.4867477-4.7576981l5.178833-0.0734177l1.4598999,3.7957611l0.0023422,0.0158806   l0.0156708,0.0194511c0.0154114,0.0310555,0.1396332,0.3213882-0.2540283,0.8985939l-0.0610886,0.089592l0.638031,1.2081451   l-0.7749023,0.417244L75.7530594,38.5336151z M78.9523087,39.1081886l-1.2024155,0.6474304l-0.5364456-1.0157814   c0.4319305-0.686512,0.2677765-1.0851555,0.2089157-1.1891022l-1.4066544-3.6573029l1.1314545-0.0160408l1.4768982,3.8333778   l-0.0699844,0.4199562L78.9523087,39.1081886z"/><path d="M25.7400131,35.1899948c-1.9519634,0-3.539999,1.5880356-3.539999,3.5400009   c0,1.9519615,1.5880356,3.5399971,3.539999,3.5399971s3.5400009-1.5880356,3.5400009-3.5399971   C29.280014,36.7780304,27.6919765,35.1899948,25.7400131,35.1899948z M25.7400131,41.9099922   c-1.7534466,0-3.1800003-1.4265518-3.1800003-3.1799965c0-1.7534485,1.4265537-3.1800003,3.1800003-3.1800003   c1.7534485,0,3.1800003,1.4265518,3.1800003,3.1800003C28.9200134,40.4834404,27.4934616,41.9099922,25.7400131,41.9099922z"/><path d="M67.1400146,34.8474274c-2.1408691,0-3.8825989,1.7416992-3.8825989,3.8825684s1.7417297,3.8825951,3.8825989,3.8825951   s3.8825684-1.7417259,3.8825684-3.8825951S69.2808838,34.8474274,67.1400146,34.8474274z M67.1400146,42.2525902   c-1.9423523,0-3.5225983-1.5802422-3.5225983-3.5225945c0-1.9423561,1.580246-3.5225716,3.5225983-3.5225716   s3.5225677,1.5802155,3.5225677,3.5225716C70.6625824,40.672348,69.0823669,42.2525902,67.1400146,42.2525902z"/><path d="M37.420063,30.3592911l0.0430069,0.1233101l1.9713821-0.0398579l0.0000038,0.0000134l2.3973351-0.0484848l0,0   l15.0482216-0.3042774c0.4962616,0,0.9000015-0.4037399,0.9000015-0.9000015v-3.5499897   c0-0.4962597-0.4037399-0.8999996-0.9000015-0.8999996h-9.4828987c-1.6185341,0-9.5497856,4.6780949-9.6291504,4.7253227   C37.3358345,29.7225533,37.3514214,30.1625614,37.420063,30.3592911z M39.3857651,28.948061l0.6826744-0.3856068   c0.1997185,0.0970612,0.4623642,0.2293949,0.541729,0.2823048c0.1140251,0.076025,0.3166695,0.0797768,0.6360931,0.0788975   c0.0933113-0.0001755,0.2219238-0.0003815,0.2994728,0.0054188c0.0253448,0.1778908,0.0035744,0.6624622-0.0389328,1.1116848   l-1.8016434,0.0364304L39.3857651,28.948061z M47.3971138,25.1000042h9.4828987   c0.2977448,0,0.5400009,0.2422562,0.5400009,0.539999v3.5499897c0,0.2977448-0.2422562,0.5400009-0.5436325,0.5400295   l-15.006813,0.3034c0.1286545-1.3247318-0.0215607-1.3859921-0.1328163-1.4305382   c-0.0951271-0.0380859-0.2414055-0.0395508-0.4911308-0.0392284c-0.1421509,0.0000877-0.3779297,0.0006733-0.4418297-0.0224419   c-0.0719643-0.0468006-0.2175827-0.1230164-0.3546906-0.1920986c0.5720406-0.3185902,1.2050362-0.6656551,1.85812-1.0140533   C45.7699051,25.4877777,46.9863701,25.1000042,47.3971138,25.1000042z M37.952095,29.7746716   c0.0085297-0.0050678,0.4350662-0.2565975,1.1113892-0.6434326l0.2696953,0.9534664l-1.5901489,0.0321541   C37.7441444,30.0159893,37.7817612,29.8760681,37.952095,29.7746716z"/><path d="M74.8763199,27.6355019L62.9117126,25.010004h-0.0195122c-0.4609871,0-0.8360138,0.3943348-0.8360138,0.8790226v0.0152931   l0.4921875,2.8747845c0.0106316,0.4673157,0.4735832,0.9208889,0.9451752,0.9208889h11.7169914   c0.4583511,0,0.8317642-0.3898525,0.8359833-0.8707619C76.0590973,28.6871128,76.0726318,27.8980007,74.8763199,27.6355019z    M75.6891022,28.7907658l-0.0025482,0.0302334c0,0.2861729-0.2135391,0.5189953-0.4760132,0.5189953H63.4935493   c-0.2501678,0-0.5853539-0.2854099-0.5853539-0.5772667v-0.0152931l-0.4918327-2.8726749   c0.006794-0.2731342,0.2080956-0.4942684,0.4579659-0.5044041l11.9248276,2.6167679   C75.7624359,28.1984997,75.6922073,28.7688503,75.6891022,28.7907658z"/></g></svg>